<svg id="icons8-stock_share" xmlns="http://www.w3.org/2000/svg" xmlns:xlink="http://www.w3.org/1999/xlink" width="97.911" height="84.56" viewBox="0 0 97.911 84.56">
  <defs>
    <linearGradient id="linear-gradient" x1="0.463" y1="-0.04" x2="0.509" y2="1.014" gradientUnits="objectBoundingBox">
      <stop offset="0" stop-color="#0370c8"/>
      <stop offset="0.484" stop-color="#036fc5"/>
      <stop offset="0.775" stop-color="#036abd"/>
      <stop offset="1" stop-color="#0362b0"/>
    </linearGradient>
    <linearGradient id="linear-gradient-2" x1="-0.005" y1="0.5" x2="0.971" y2="0.5" gradientUnits="objectBoundingBox">
      <stop offset="0" stop-color="#c48f0c"/>
      <stop offset="0.251" stop-color="#d19b16"/>
      <stop offset="0.619" stop-color="#dca51f"/>
      <stop offset="1" stop-color="#e0a922"/>
    </linearGradient>
    <linearGradient id="linear-gradient-3" x1="1.016" x2="0.026" xlink:href="#linear-gradient-2"/>
    <radialGradient id="radial-gradient" cx="0.5" cy="0.5" r="0.438" gradientTransform="translate(-2.79) scale(1.367 1)" gradientUnits="objectBoundingBox">
      <stop offset="0" stop-color="#ffcf54"/>
      <stop offset="0.261" stop-color="#fdcb4d"/>
      <stop offset="0.639" stop-color="#f7c13a"/>
      <stop offset="1" stop-color="#f0b421"/>
    </radialGradient>
    <radialGradient id="radial-gradient-2" cx="0.344" cy="0.063" r="1.653" gradientTransform="translate(0.25) scale(0.8 1)" gradientUnits="objectBoundingBox">
      <stop offset="0" stop-color="#c26715"/>
      <stop offset="0.508" stop-color="#b85515"/>
      <stop offset="1" stop-color="#ad3f16"/>
    </radialGradient>
    <radialGradient id="radial-gradient-3" cx="0.297" cy="0.562" r="4.164" gradientTransform="translate(1.041 0.08) scale(0.57 1.046)" xlink:href="#radial-gradient-2"/>
  </defs>
  <path id="Path_64" data-name="Path 64" d="M88.56,7H8.451A4.449,4.449,0,0,0,4,11.451V78.208a4.449,4.449,0,0,0,4.451,4.451H88.56a4.449,4.449,0,0,0,4.451-4.451V11.451A4.449,4.449,0,0,0,88.56,7Z" transform="translate(-4 -7)" fill="#33c481"/>
  <path id="Path_65" data-name="Path 65" d="M74.983,75.758H17.126A11.128,11.128,0,0,0,6,64.632V20.126A11.128,11.128,0,0,0,17.126,9H74.983A11.128,11.128,0,0,0,86.109,20.126V64.632A11.128,11.128,0,0,0,74.983,75.758Z" transform="translate(-1.549 -4.549)" fill="#c9f5e0"/>
  <path id="Path_66" data-name="Path 66" d="M59.73,35.451H15.225A2.226,2.226,0,0,1,13,33.225h0A2.226,2.226,0,0,1,15.225,31H59.73a2.226,2.226,0,0,1,2.225,2.225h0A2.226,2.226,0,0,1,59.73,35.451Z" transform="translate(7.027 22.406)" fill="#61e3a7"/>
  <path id="Path_67" data-name="Path 67" d="M52.829,39.451h-35.6A2.226,2.226,0,0,1,15,37.225h0A2.226,2.226,0,0,1,17.225,35h35.6a2.226,2.226,0,0,1,2.225,2.225h0A2.226,2.226,0,0,1,52.829,39.451Z" transform="translate(9.478 27.307)" fill="#61e3a7"/>
  <path id="Path_68" data-name="Path 68" d="M37.8,36.022c0-8.719-12.871-7.014-12.871-12.165,0-2.688,3.022-2.831,3.968-2.831a14.843,14.843,0,0,1,6.135,1.393.786.786,0,0,0,1.133-.7V19.181a1.486,1.486,0,0,0-.83-1.553,16.159,16.159,0,0,0-5.225-.852V13.983a.606.606,0,0,0-.605-.605H28.3a.606.606,0,0,0-.605.605V16.82C23.914,17.192,20,19.322,20,24.28c0,9.037,12.869,7.245,12.869,12,0,1.5-.955,2.786-3.968,2.786a16.95,16.95,0,0,1-7.35-1.845.779.779,0,0,0-1.128.7v2.888a1.37,1.37,0,0,0,.843,1.262,22.063,22.063,0,0,0,6.424,1.533v3.084a.606.606,0,0,0,.605.605h1.211a.606.606,0,0,0,.605-.605V43.615C35.759,43.143,37.8,39.36,37.8,36.022Z" transform="translate(15.604 0.815)" fill="#107c42"/>
  <path id="Path_69" data-name="Path 69" d="M61.628,24.225A2.225,2.225,0,0,0,59.4,22H49.017c-4.057,0-5.881,1.807-6.694,3.264A9.325,9.325,0,0,0,38,27.714,10.919,10.919,0,0,0,34.925,35.8a35.324,35.324,0,0,0,.683,6.117,4.391,4.391,0,0,0-.623,3.069l.461,2.842a3.7,3.7,0,0,0,1.816,2.639,11.066,11.066,0,0,0,3.064,5.423c-5,1.8-8.808,4.856-10.712,8.394H57.177a4.449,4.449,0,0,0,4.451-4.451Z" transform="translate(27.383 11.379)" opacity="0.05"/>
  <path id="Path_70" data-name="Path 70" d="M30.186,63.667H56.475a4.449,4.449,0,0,0,4.451-4.451V27.091a11.213,11.213,0,0,0-1.308-1.064,14.241,14.241,0,0,0,.2-2.414A1.113,1.113,0,0,0,58.7,22.5H48.315c-3.883,0-5.37,1.774-5.939,3.133a8.189,8.189,0,0,0-4.3,2.259,9.842,9.842,0,0,0-2.737,7.292,34.443,34.443,0,0,0,.759,6.373,3.279,3.279,0,0,0-.712,2.635l.461,2.842a2.562,2.562,0,0,0,1.736,2.054c.174,2.174,1.7,4.6,4.192,6.667C36.423,57.263,32.282,60.2,30.186,63.667Z" transform="translate(28.085 11.992)" opacity="0.07"/>
  <path id="Path_71" data-name="Path 71" d="M17.676,28.9H13.225A2.226,2.226,0,0,1,11,26.676V22.225A2.226,2.226,0,0,1,13.225,20h4.451A2.226,2.226,0,0,1,19.9,22.225v4.451A2.226,2.226,0,0,1,17.676,28.9Z" transform="translate(4.577 8.928)" fill="#61e3a7"/>
  <path id="Path_72" data-name="Path 72" d="M39.676,28.9H35.225A2.226,2.226,0,0,1,33,26.676V22.225A2.226,2.226,0,0,1,35.225,20h4.451A2.226,2.226,0,0,1,41.9,22.225v4.451A2.226,2.226,0,0,1,39.676,28.9Z" transform="translate(31.533 8.928)" fill="#61e3a7"/>
  <path id="Path_73" data-name="Path 73" d="M50.027,37.446C38.966,37.446,30,43.606,30,50.321V52.03a2.226,2.226,0,0,0,2.225,2.225h35.6a2.226,2.226,0,0,0,2.225-2.225V50.321C70.055,43.606,61.089,37.446,50.027,37.446Z" transform="translate(27.857 30.304)" fill="url(#linear-gradient)"/>
  <path id="Path_74" data-name="Path 74" d="M49.352,43.772c0,2.532-3.778,5.341-6.676,5.341S36,46.3,36,43.772V34.379H49.352Z" transform="translate(35.208 26.546)" fill="#d6a121"/>
  <path id="Path_75" data-name="Path 75" d="M44.437,31h-.7v6.676h.939a1.429,1.429,0,0,0,1.389-1.235l.461-2.842A2.195,2.195,0,0,0,44.437,31Z" transform="translate(44.684 22.406)" fill="url(#linear-gradient-2)"/>
  <path id="Path_76" data-name="Path 76" d="M35.115,31h.7v6.676h-.939a1.429,1.429,0,0,1-1.389-1.235L33.03,33.6A2.195,2.195,0,0,1,35.115,31Z" transform="translate(31.532 22.406)" fill="url(#linear-gradient-3)"/>
  <path id="Path_77" data-name="Path 77" d="M45.126,24.833c-5.49,0-11.126.834-11.126,12.7v8.28c0,4.237,6.676,9.428,11.126,9.428s11.126-5.192,11.126-9.428v-8.28C56.253,25.667,50.616,24.833,45.126,24.833Z" transform="translate(32.758 14.85)" fill="url(#radial-gradient)"/>
  <path id="Path_78" data-name="Path 78" d="M46.352,23.4c-5.812,0-6.676,2.185-6.676,2.185C37.942,25.563,33,27.4,33,34.081c0,2.207.641,7.717,2.225,10.681,0-15.041,4.155-13.8,11.126-13.8s11.126-1.535,11.126,13.8C59.2,41.683,59.7,36.011,59.7,34.081,59.7,27.343,54.641,23.4,46.352,23.4Z" transform="translate(31.533 13.094)" fill="url(#radial-gradient-2)"/>
  <path id="Path_79" data-name="Path 79" d="M41.207,23c-5.921,0-5.192,4.451-5.192,4.451,0,2.966,2.049,4.451,5.935,4.451,4.535,0,9.642-1.346,9.642-8.9Z" transform="translate(35.193 12.604)" fill="url(#radial-gradient-3)"/>
</svg>
