<svg xmlns="http://www.w3.org/2000/svg" width="115" height="70.568" viewBox="0 0 115 70.568">
  <g id="icons8-conference_foreground_selected_skin_type_7" transform="translate(-2 -10)">
    <path id="Path_101" data-name="Path 101" d="M2,62.045A29.25,29.25,0,0,1,28.136,46.364,29.25,29.25,0,0,1,54.273,62.045V72.5H2Zm115,0a29.621,29.621,0,0,0-52.273,0V72.5H117ZM28.136,41.136A13.068,13.068,0,1,0,15.068,28.068,13.066,13.066,0,0,0,28.136,41.136m62.727,0A13.068,13.068,0,1,0,77.8,28.068,13.066,13.066,0,0,0,90.864,41.136" transform="translate(0 8.068)" fill="#cfd8dc"/>
    <path id="Path_102" data-name="Path 102" d="M49.364,25.682A15.682,15.682,0,1,1,33.682,10,15.681,15.681,0,0,1,49.364,25.682" transform="translate(25.818)" fill="#ffca28"/>
    <path id="Path_103" data-name="Path 103" d="M74.727,43.3A35.068,35.068,0,0,0,43.364,25,35.068,35.068,0,0,0,12,43.3V56.364H74.727Z" transform="translate(16.136 24.205)" fill="#546e7a"/>
  </g>
</svg>
