<svg id="icons8-reactos" xmlns="http://www.w3.org/2000/svg" xmlns:xlink="http://www.w3.org/1999/xlink" width="96.917" height="87.404" viewBox="0 0 96.917 87.404">
  <defs>
    <linearGradient id="linear-gradient" x1="0.5" y1="1.152" x2="0.5" y2="-0.01" gradientUnits="objectBoundingBox">
      <stop offset="0" stop-color="#9ca5ad"/>
      <stop offset="1" stop-color="#cdd2d6"/>
    </linearGradient>
    <linearGradient id="linear-gradient-2" x1="0" y1="0.5" x2="1" y2="0.5" xlink:href="#linear-gradient"/>
    <radialGradient id="radial-gradient" cx="0.49" cy="-0.312" r="1.416" gradientTransform="translate(-0.75) scale(2.5 1)" gradientUnits="objectBoundingBox">
      <stop offset="0.323" stop-color="#23d9d6"/>
      <stop offset="0.427" stop-color="#23d4d7"/>
      <stop offset="0.542" stop-color="#21c7dc"/>
      <stop offset="0.664" stop-color="#1fb0e2"/>
      <stop offset="0.789" stop-color="#1c91ec"/>
      <stop offset="0.917" stop-color="#1969f8"/>
      <stop offset="0.944" stop-color="#1860fb"/>
    </radialGradient>
    <linearGradient id="linear-gradient-3" x1="0.5" y1="1.426" x2="0.5" y2="0.316" gradientUnits="objectBoundingBox">
      <stop offset="0.263" stop-color="#1fa0e5"/>
      <stop offset="0.655" stop-color="#20a2e6"/>
      <stop offset="0.797" stop-color="#25a9e8"/>
      <stop offset="0.898" stop-color="#2db4ec"/>
      <stop offset="0.979" stop-color="#38c5f2"/>
      <stop offset="1" stop-color="#3ccbf4"/>
    </linearGradient>
  </defs>
  <circle id="Ellipse_9" data-name="Ellipse 9" cx="37.009" cy="37.009" r="37.009" transform="translate(12.108 7.527)" fill="url(#linear-gradient)"/>
  <path id="Path_60" data-name="Path 60" d="M40.9,41.186a41.413,41.413,0,0,1-3.754,1.877c-.264-.132-.5-.264-.767-.4a109.783,109.783,0,0,1-11.1-6.424,2.412,2.412,0,0,1-.344-.211c.767-.476,1.533-.978,2.3-1.454a1.778,1.778,0,0,0,.291.185.578.578,0,0,0,.132.079,106.808,106.808,0,0,0,12.16,5.948c.106.053.185.079.291.132A4.651,4.651,0,0,0,40.9,41.186Z" transform="translate(26.645 36.157)" fill="url(#linear-gradient-2)"/>
  <path id="Path_61" data-name="Path 61" d="M11.124,25.068a4.487,4.487,0,0,1-.264-.37,2.769,2.769,0,0,1,.211-.291A5.565,5.565,0,0,0,11.124,25.068Z" transform="translate(3.521 19.442)" fill="url(#radial-gradient)"/>
  <path id="Path_62" data-name="Path 62" d="M102.305,20.262c-.291,7.217-4.6,16.548-10.733,25.721-.132.211-.264.4-.423.608-1.586,2.353-3.278,4.626-5.076,6.9-1.242,1.665-2.617,3.278-3.965,4.891a120.724,120.724,0,0,1-10.891,11.1A115.942,115.942,0,0,1,59.586,78.5c-.582.37-1.163.767-1.745,1.163-.159.106-.344.211-.5.317-1.19.793-2.379,1.533-3.6,2.247-.582.37-1.163.714-1.745,1.057-2.644,1.533-5.313,2.987-8.01,4.309l-.634.317c-8.433,4.124-16.813,6.847-23.5,7.058a20.863,20.863,0,0,1-2.591-.053c-4.045-.344-7.138-1.771-9.173-4.309C.741,81.565,10.1,65.2,17.633,54.654a35.463,35.463,0,0,0,1.718,8.909C14.223,71.811,9.174,82.094,12.9,86.694c.925,1.163,2.564,1.824,4.864,2.009,4.52.37,10.971-1.242,18-4.15.185-.079.344-.159.529-.238a102.691,102.691,0,0,0,10.045-4.891c.529-.291,1.057-.608,1.586-.9,1.428-.819,2.855-1.665,4.256-2.564.529-.344,1.057-.661,1.56-1.031a112.3,112.3,0,0,0,13.323-10.1A117.946,117.946,0,0,0,77.72,53.993c.132-.185.317-.4.476-.582.529-.608,1.057-1.216,1.533-1.824.687-.793,1.322-1.639,1.93-2.432a105.934,105.934,0,0,0,7.3-10.6A6.325,6.325,0,0,0,89.3,38c4.1-6.9,6.609-13.3,6.794-17.976.079-2.326-.423-4.045-1.507-5.181-3.146-3.331-13.852.106-22.549,4.679a35.963,35.963,0,0,0-7.534-3.04c21.756-13.138,32.991-7.587,34.6-5.948C101.406,12.939,102.464,16.217,102.305,20.262Z" transform="translate(-5.42 -7.58)" fill="url(#linear-gradient-3)"/>
  <path id="Path_63" data-name="Path 63" d="M99.655,90.846c-2.036,2.538-5.128,3.965-9.173,4.309a20.863,20.863,0,0,1-2.591.053C81.2,95,72.823,92.273,64.39,88.149l-.159-.079-.476-.238c-2.7-1.322-5.366-2.776-8.01-4.309-.582-.344-1.163-.687-1.745-1.057-1.216-.714-2.406-1.454-3.6-2.247-.159-.106-.344-.211-.5-.317-.582-.4-1.163-.793-1.745-1.163a115.937,115.937,0,0,1-11.631-9.014,120.721,120.721,0,0,1-10.891-11.1c-1.348-1.613-2.723-3.225-3.965-4.891-1.375-1.745-2.7-3.489-3.939-5.287-.4-.529-.767-1.057-1.137-1.613-.159-.211-.291-.4-.423-.608C10.039,37.05,5.73,27.718,5.44,20.5c-.159-4.045.9-7.323,3.2-9.728,1.56-1.586,11-8.274,35.846,5.974a35.011,35.011,0,0,0-8.724,3.727c-7.931-5.208-19.483-8.7-22.6-5.393-1.084,1.137-1.586,2.855-1.507,5.181.185,4.679,2.7,11.076,6.794,17.976a6.324,6.324,0,0,0,.344.555c.264.449.529.872.819,1.322A105.855,105.855,0,0,0,26.086,49.4c.608.793,1.242,1.639,1.93,2.432.476.608,1,1.216,1.533,1.824.159.185.344.4.476.582A117.945,117.945,0,0,0,40.678,65.071,112.3,112.3,0,0,0,54,75.17c.5.37,1.031.687,1.56,1.031,1.4.9,2.829,1.745,4.256,2.564.529.291,1.057.608,1.586.9a102.688,102.688,0,0,0,10.045,4.891c.185.079.344.159.529.238.079.026.132.053.211.079,6.952,2.855,13.323,4.441,17.791,4.071,2.3-.185,3.939-.846,4.864-2.009,3.516-4.335-.793-13.773-5.6-21.756A35.778,35.778,0,0,0,91.3,56.586C98.571,67.133,106.634,82.281,99.655,90.846Z" transform="translate(-5.413 -7.82)" fill="url(#linear-gradient-3)"/>
</svg>
